<svg width="48" height="48" viewBox="0 0 48 48" fill="none" xmlns="http://www.w3.org/2000/svg">
<path d="M16 8H14.4C12.16 8 11.04 8 10.184 8.436C9.43139 8.81949 8.81949 9.43139 8.436 10.184C8 11.04 8 12.16 8 14.4V16M16 8H32M16 8V4M8 16V33.6C8 35.84 8 36.96 8.436 37.816C8.81949 38.5686 9.43139 39.1805 10.184 39.564C11.038 40 12.158 40 14.394 40H33.606C35.842 40 36.96 40 37.814 39.564C38.568 39.18 39.18 38.568 39.564 37.816C40 36.96 40 35.844 40 33.608V16M8 16H40M32 8H33.6C35.84 8 36.96 8 37.814 8.436C38.568 8.82 39.18 9.43 39.564 10.184C40 11.038 40 12.158 40 14.394V16M32 8V4M32 32H32.004V32.004H32V32ZM24 32H24.004V32.004H24V32ZM16 32H16.004V32.004H16V32ZM32.004 24V24.004H32V24H32.004ZM24 24H24.004V24.004H24V24ZM16 24H16.004V24.004H16V24Z" stroke="#EF3C44" stroke-width="4" stroke-linecap="round" stroke-linejoin="round"/>
</svg>
