<svg width="205" height="75" viewBox="0 0 205 75" fill="none" xmlns="http://www.w3.org/2000/svg">
<g clip-path="url(#clip0_2_21)">
<path d="M175.006 59.9911H160.006V75.0055H175.006V59.9911Z" fill="#ECECEC"/>
<path d="M145.007 44.9934H130.007V59.9912H145.007V44.9934Z" fill="#ECECEC"/>
<path d="M115.007 44.9934H99.9908V59.9912H115.007V44.9934Z" fill="#ECECEC"/>
<path d="M130.007 44.9934H115.007V59.9912H130.007V44.9934Z" fill="#D9D9D9"/>
<path d="M99.9908 44.9934V29.9956H115.007V14.9978H99.9908H84.991V29.9956V44.9934H69.9913V29.9956H54.9916V44.9934H39.9918V29.9956H24.9976V14.9978H9.99786V29.9956V44.9934H24.9976V59.9912H39.9918H54.9916H69.9913V75H84.991H99.9908V59.9912V44.9934Z" fill="#D9D9D9"/>
<path d="M9.99788 29.9956V14.9978H-5.00185H-20.0016V29.9956H-5.00185H9.99788Z" fill="#ECECEC"/>
<path d="M24.9976 29.9956H39.9918H54.9915H69.9913V44.9934H84.991V29.9956V14.9978H69.9913H54.9915H39.9918V0H24.9976H9.99786V14.9978H24.9976V29.9956Z" fill="#ECECEC"/>
<path d="M190.006 59.9911H175.006V75H190.006H205V59.9911H190.006Z" fill="white"/>
<path d="M160.006 44.9934H145.007V59.9912H130.007H115.007H99.9908V75H115.007H130.007H145.007H160.006V59.9912H175.006V44.9934H160.006Z" fill="white"/>
<path d="M130.007 44.9934V29.9956H115.007H99.9908V44.9934H115.007H130.007Z" fill="white"/>
<path d="M54.9916 0V14.9978H69.9913H84.991V0H69.9913H54.9916Z" fill="white"/>
<path d="M39.9918 59.9912H24.9976V44.9934H9.99789V29.9956H-5.00185V44.9934V59.9912H-20.0016V75H-5.00185H9.99789H24.9976H39.9918H54.9916H69.9913V59.9912H54.9916H39.9918Z" fill="white"/>
<path d="M54.9916 29.9956H39.9919V44.9934H54.9916V29.9956Z" fill="white"/>
<path d="M54.9915 0H39.9918V14.9978H54.9915V0Z" fill="#D9D9D9"/>
</g>
<defs>
<clipPath id="clip0_2_21">
<rect width="315" height="75" fill="white" transform="translate(-110)"/>
</clipPath>
</defs>
</svg>
