<svg width="315" height="75" viewBox="0 0 315 75" fill="none" xmlns="http://www.w3.org/2000/svg">
<g clip-path="url(#clip0_2_261)">
<path d="M29.994 59.9911H44.9937V75.0055H29.994V59.9911Z" fill="#ECECEC"/>
<path d="M59.9934 44.9934H74.9932V59.9912H59.9934V44.9934Z" fill="#ECECEC"/>
<path d="M89.9929 44.9934H105.009V59.9912H89.9929V44.9934Z" fill="#ECECEC"/>
<path d="M74.9932 44.9934H89.9929V59.9912H74.9932V44.9934Z" fill="#D9D9D9"/>
<path d="M105.009 44.9934V29.9956H89.9929V14.9978H105.009H120.009V29.9956V44.9934H135.009V29.9956H150.008V44.9934H165.008V29.9956H180.002V14.9978H195.002V29.9956V44.9934H180.002V59.9912H165.008H150.008H135.009V75H120.009H105.009V59.9912V44.9934Z" fill="#D9D9D9"/>
<path d="M255.001 29.9956H270.001V44.9934H255.001V29.9956Z" fill="#D9D9D9"/>
<path d="M285.001 59.9911H300V75H285.001H270.001V59.9911H285.001Z" fill="#D9D9D9"/>
<path d="M300 59.9911H315V75.0055H300V59.9911Z" fill="white"/>
<path d="M195.002 29.9956V14.9978H210.002H225.002V29.9956H210.002H195.002Z" fill="#ECECEC"/>
<path d="M14.9942 59.9911H29.994V75H14.9942H1.33514e-05V59.9911H14.9942Z" fill="white"/>
<path d="M74.9932 44.9934V29.9956H89.9929H105.009V44.9934H89.9929H74.9932Z" fill="white"/>
<path d="M240.001 59.9911H255.001V75.0055H240.001V59.9911Z" fill="white"/>
<path d="M165.008 59.9912H180.002V44.9934H195.002V29.9956H210.002V44.9934V59.9912H225.002V75H210.002H195.002H180.002H165.008H150.008H135.009V59.9912H150.008H165.008Z" fill="white"/>
<path d="M150.008 29.9956H165.008V44.9934H150.008V29.9956Z" fill="white"/>
<path d="M150.008 0H165.008V14.9978H150.008V0Z" fill="#D9D9D9"/>
</g>
<defs>
<clipPath id="clip0_2_261">
<rect width="315" height="75" fill="white" transform="matrix(-1 0 0 1 315 0)"/>
</clipPath>
</defs>
</svg>
