<svg width="215" height="56" viewBox="0 0 215 56" fill="none" xmlns="http://www.w3.org/2000/svg">
<g clip-path="url(#clip0_3_1630)">
<path fill-rule="evenodd" clip-rule="evenodd" d="M143.799 35.5036H156.368V19.1241H143.799C141.626 19.1241 139.609 21.0941 139.609 23.219V31.4087C139.609 33.5336 141.626 35.5036 143.799 35.5036ZM194.052 35.5036H206.621V19.1241H194.052C191.88 19.1241 189.862 21.0941 189.862 23.219V31.4087C189.862 33.5336 191.88 35.5036 194.052 35.5036ZM164.725 12.9708V41.6569C164.725 42.5644 163.55 43.7154 162.641 43.7154L158.451 43.7597C157.52 43.7597 156.368 42.5644 156.368 41.6791V40.3067L154.461 42.5423C153.885 43.317 152.444 43.7154 151.469 43.7154H143.799C137.06 43.7154 131.23 38.0047 131.23 31.4308V23.2411C131.23 16.6672 137.06 10.9565 143.799 10.9565H162.641C163.572 10.9565 164.725 12.1075 164.725 13.015V12.9708ZM215 12.9708V41.6569C215 42.5644 213.825 43.7154 212.916 43.7154L208.727 43.7597C207.796 43.7597 206.643 42.5644 206.643 41.6791V40.3067L204.737 42.5423C204.16 43.317 202.719 43.7154 201.744 43.7154H194.074C187.335 43.7154 181.505 38.0047 181.505 31.4308V23.2411C181.505 16.6672 187.335 10.9565 194.074 10.9565H212.916C213.847 10.9565 215 12.1075 215 13.015V12.9708ZM75.3907 19.1241H62.8219C60.6495 19.1241 58.6323 21.0941 58.6323 23.219V31.4087C58.6323 33.5336 60.6495 35.5036 62.8219 35.5036H75.3907V19.1241ZM83.77 12.9708V44.3794C83.77 50.9534 77.94 56 71.2011 56H64.7283C63.7751 56 62.8663 55.5573 62.2677 54.8047L58.588 50.0459C57.9673 49.249 58.322 47.8103 59.3417 47.8103H71.2011C73.3735 47.8103 75.3907 46.5043 75.3907 44.4016V43.7154H62.8219C56.0831 43.7154 50.2531 38.0047 50.2531 31.4308V23.2411C50.2531 16.6672 56.0831 10.9565 62.8219 10.9565H70.4918C71.445 10.9565 72.509 11.7091 73.174 12.3289L75.3686 14.3874V13.015C75.3686 12.1075 76.5434 10.9565 77.4523 10.9565H81.6419C82.5729 10.9565 83.7256 12.1075 83.7256 13.015L83.77 12.9708ZM8.37919 31.4087C8.37919 33.5336 10.3964 35.5036 12.5688 35.5036H25.1376V19.1241H12.5688C10.3964 19.1241 8.37919 21.0941 8.37919 23.219V31.4087ZM31.4109 0C32.342 0 33.5168 1.15099 33.5168 2.0585V41.6791C33.5168 42.5866 32.342 43.7375 31.4331 43.7375H27.2435C26.3125 43.7375 25.1598 42.5866 25.1598 41.6791V40.3067L22.9652 42.6087C22.3667 43.2506 21.214 43.7154 20.283 43.7154H12.6131C5.87429 43.7154 0.0443115 38.0047 0.0443115 31.4308V23.3075C0.0443115 16.7336 5.87429 10.9565 12.6131 10.9565H25.182V2.0585C25.1376 1.15099 26.2903 0 27.2213 0H31.4109ZM117.974 27.3138L129.634 12.8822C130.277 12.0854 129.7 10.9344 128.681 10.9344H122.008C121.499 10.9344 121.033 11.1557 120.701 11.532L108.885 25.9636V2.0585C108.885 1.15099 107.733 0 106.802 0H102.612C101.681 0 100.528 1.15099 100.528 2.0585V41.6791C100.528 42.5866 101.703 43.7375 102.612 43.7375H106.802C107.733 43.7375 108.885 42.5866 108.885 41.6791V28.7083L120.701 43.1621C121.011 43.5383 121.499 43.7818 122.008 43.7818H128.659C129.7 43.7818 130.277 42.6087 129.612 41.834L117.952 27.3581L117.974 27.3138ZM90.0433 0C89.1123 0 87.9596 1.15099 87.9596 2.0585V6.15336C87.9596 7.06087 89.1344 8.21186 90.0433 8.21186H94.2329C95.1639 8.21186 96.3166 7.06087 96.3166 6.15336V2.0585C96.3166 1.15099 95.1639 0 94.2329 0H90.0433ZM90.0433 10.9344C89.1123 10.9344 87.9596 12.0854 87.9596 12.9929V41.6791C87.9596 42.5866 89.4448 43.7597 90.3758 43.7597L94.2329 43.7154C95.1639 43.7154 96.3166 42.5644 96.3166 41.6569V12.9708C96.3166 12.0632 95.1417 10.9123 94.2329 10.9123H90.0433V10.9344ZM39.7902 0C38.8591 0 37.7064 1.15099 37.7064 2.0585V6.15336C37.7064 7.06087 38.8813 8.21186 39.7902 8.21186H43.9798C44.9108 8.21186 46.0635 7.06087 46.0635 6.15336V2.0585C46.0635 1.15099 44.9108 0 43.9798 0H39.7902ZM39.7902 10.9344C38.8591 10.9344 37.7064 12.0854 37.7064 12.9929V41.6791C37.7064 42.5866 38.8813 43.7375 39.7902 43.7375H43.9798C44.9108 43.7375 46.0635 42.5866 46.0635 41.6791V12.9708C46.0635 12.0632 44.8886 10.9123 43.9798 10.9123H39.7902V10.9344ZM177.294 2.0585V41.6791C177.294 42.5866 176.119 43.7375 175.21 43.7375H171.02C170.089 43.7375 168.936 42.5866 168.936 41.6791V2.0585C168.914 1.15099 170.089 0 171.02 0H175.21C176.141 0 177.294 1.15099 177.294 2.0585Z" fill="#EF394E"/>
</g>
<defs>
<clipPath id="clip0_3_1630">
<rect width="215" height="56" fill="white"/>
</clipPath>
</defs>
</svg>
