<svg width="968" height="147" viewBox="0 0 968 147" fill="none" xmlns="http://www.w3.org/2000/svg">
<g clip-path="url(#clip0_2_44)">
<path d="M7.25635 67.8927H0.541077V54.3243H34.2489V27.1927H41.0248V67.8927H34.2489V74.6438H7.25635V67.8927Z" fill="#171A1C"/>
<path d="M56.3112 54.2633H49.5959V13.5684H42.8199V6.81723H56.3162V40.7051H66.4498L69.1501 42.5149V59.2758L66.4498 61.0856H56.3162V54.2735L56.3112 54.2633Z" fill="#171A1C"/>
<path d="M63.7445 59.2707V42.5098L66.4447 40.7H125.79V33.9489H65.0946V18.6927H71.8099V27.1317H132.566V54.2633H125.79V61.0755H66.4447L63.7445 59.2657V59.2707ZM71.8149 11.8806H125.79V18.6927H71.8149V11.8806Z" fill="#171A1C"/>
<path d="M152.772 54.3243H146.057V27.1927H152.772V40.761H179.76V27.1927H186.536V54.3243H179.76V61.0755H152.772V54.3243ZM152.772 20.3805H179.76V27.1927H152.772V20.3805Z" fill="#171A1C"/>
<path d="M200.871 54.2633H194.156V13.5684H187.38V6.81723H200.877V40.7051H211.01L213.71 42.5149V59.2758L211.01 61.0856H200.877V54.2735L200.871 54.2633Z" fill="#171A1C"/>
<path d="M208.31 59.2708V42.5098L211.01 40.7H270.355V33.9489H209.599V18.6927H216.375V27.1927H277.071V40.7H283.847L286.547 42.5098V59.2708L283.847 61.0805H277.071V54.3294H270.355V61.0805H211.01L208.31 59.2708ZM216.38 11.9365H270.355V18.6876H216.38V11.9365ZM243.368 0H270.355V6.81215H243.368V0Z" fill="#171A1C"/>
<path d="M281.151 59.2707V42.5098L283.852 40.7H290.299L292.999 42.5098V59.2707L290.299 61.0805H283.852L281.151 59.2707Z" fill="#171A1C"/>
<path d="M287.604 59.2707V42.5098L290.304 40.7H305.656V27.1927H312.371V40.7H332.644V28.8804H339.359V40.7H359.631V25.5049H366.346V40.7H374.685L377.385 42.5098V59.2707L374.685 61.0805H366.346V54.3294H359.631V61.0805H290.299L287.599 59.2707H287.604ZM325.746 15.3172H339.242V8.505H346.018V22.0734H325.746V15.3222V15.3172Z" fill="#171A1C"/>
<path d="M371.984 59.2708V42.5098L374.685 40.7H398.315V25.4439H405.03V54.2633H398.315V61.0755H374.685L371.984 59.2657V59.2708ZM374.027 67.8927H394.3V74.6438H374.027V67.8927Z" fill="#171A1C"/>
<path d="M419.366 54.2633H412.65V13.5684H405.874V6.81723H419.371V40.7051H429.504L432.204 42.5149V59.2758L429.504 61.0856H419.371V54.2735L419.366 54.2633Z" fill="#171A1C"/>
<path d="M426.804 59.2708V42.5098L429.504 40.7H435.956V27.1927H442.732V40.7H462.944V27.1927H469.72V40.7H471.019L473.72 42.5098V59.2708L471.019 61.0806H442.727V54.3294H435.951V61.0806H429.499L426.799 59.2708H426.804ZM442.732 20.3805H462.944V27.1927H442.732V20.3805Z" fill="#171A1C"/>
<path d="M468.324 59.2707V42.5098L471.025 40.7H494.654V25.4439H501.37V54.2633H494.654V61.0755H471.025L468.324 59.2657V59.2707ZM479.838 11.8806H486.614V18.6317H479.838V11.8806Z" fill="#171A1C"/>
<path d="M524.823 67.8317H518.107V27.1316H524.823V54.2633H558.591V27.1316H565.306V40.7H572.082L574.783 42.5098V59.2707L572.082 61.0805H565.306V67.8317H558.591V74.5828H524.823V67.8317ZM538.319 13.5684H545.095V20.3195H538.319V13.5684Z" fill="#EF3C44"/>
<path d="M569.387 59.2707V42.5098L572.087 40.7H593.715V27.1927H600.491V40.7H607.206L609.906 42.5098V59.2707L607.206 61.0805H600.491V54.3294H593.715V61.0805H572.087L569.387 59.2707ZM576.76 67.8927H597.032V74.6438H576.76V67.8927Z" fill="#EF3C44"/>
<path d="M604.506 59.2708V42.5098L607.206 40.7H620.702V27.1927H627.478V40.7H647.69V27.1927H654.466V40.7H661.181L663.881 42.5098V59.2708L661.181 61.0806H627.473V54.3294H620.697V61.0806H607.201L604.501 59.2708H604.506ZM627.478 20.3805H647.69V27.1927H627.478V20.3805Z" fill="#EF3C44"/>
<path d="M658.481 59.2707V42.5098L661.181 40.7H667.957V27.1927H674.672V40.7H694.944V27.1927H674.672V20.3805H694.944V13.6294H701.66V20.3805H721.932V27.1927H701.66V40.7H721.932V27.1927H728.647V54.3243H721.932V61.0755H661.176L658.476 59.2657L658.481 59.2707Z" fill="#EF3C44"/>
<path d="M741.309 54.2633H734.594V35.6316H741.309V40.695H775.078V27.1266H781.793V54.2582H775.078V61.0704H741.309V54.2582V54.2633ZM744.727 20.3805H775.073V27.1317H744.727V20.3805Z" fill="#EF3C44"/>
<path d="M788.574 67.8927H781.859V54.3243H815.566V27.1927H822.342V67.8927H815.566V74.6438H788.579V67.8927H788.574Z" fill="#EF3C44"/>
<path d="M836.415 54.2633H829.7V13.5684H822.924V6.81723H836.42V40.7051H846.554L849.254 42.5149V59.2758L846.554 61.0856H836.42V54.2735L836.415 54.2633Z" fill="#EF3C44"/>
<path d="M843.853 59.2707V42.5098L846.554 40.7H853.33V27.1927H860.045V40.7H880.317V27.1927H860.045V20.3805H880.317V13.6294H887.032V20.3805H907.305V27.1927H887.032V40.7H907.305V27.1927H914.02V40.7H920.796L923.496 42.5098V59.2707L920.796 61.0805H914.02V54.3294H907.305V61.0805H846.549L843.848 59.2707H843.853Z" fill="#EF3C44"/>
<path d="M918.101 59.2707V42.5098L920.801 40.7H961.285V27.1317H968V54.2633H961.285V61.0755H920.801L918.101 59.2657V59.2707ZM927.516 20.3195H961.28V27.1317H934.292V32.195H927.516V20.3144V20.3195ZM947.849 74.8268H934.176V67.8927H954.746V81.7H947.849V74.8268Z" fill="#EF3C44"/>
<path d="M6.71527 126.68H0V104.612H6.71527V113.051H60.6903V99.5437H67.4662V113.051H87.6777V99.5437H94.4537V113.051H101.169L103.869 114.861V131.622L101.169 133.432H94.4537V126.68H87.6777V133.432H6.71527V126.68ZM67.4713 92.7316H87.6828V99.5437H67.4713V92.7316ZM74.1865 79.1683H80.9625V85.9194H74.1865V79.1683Z" fill="#171A1C"/>
<path d="M98.4788 131.622V114.861L101.179 113.051H124.809V97.795H131.524V126.614H124.809V133.427H101.179L98.4788 131.617V131.622ZM100.517 140.249H120.789V147H100.517V140.249Z" fill="#171A1C"/>
<path d="M138.239 140.188H131.524V126.619H165.232V99.4878H172.008V113.056H220.77L223.47 114.866V131.627L220.77 133.437H172.008V140.188H165.232V147H138.245V140.188H138.239Z" fill="#171A1C"/>
<path d="M218.074 131.622V114.861L220.775 113.051H234.271V99.4827H240.986V113.051H261.258V101.232H267.974V113.051H288.246V97.795H300.003V104.607H294.966V126.614H288.251V133.427H220.78L218.079 131.617L218.074 131.622ZM254.417 87.6683H267.913V80.8561H274.689V94.4245H254.417V87.6733V87.6683Z" fill="#171A1C"/>
<path d="M320.573 140.249H313.858V106.305H320.573V126.686H354.342V119.873H344.208V113.061H379.059L381.759 114.871V131.632L379.059 133.442H361.057V140.254H354.342V147.005H320.573V140.254V140.249Z" fill="#171A1C"/>
<path d="M376.358 131.622V114.861L379.059 113.051H415.31V99.5438H422.086V113.051H428.801L431.502 114.861V131.622L428.801 133.432H422.086V126.68H415.31V133.432H379.059L376.358 131.622ZM394.077 85.9805H414.349V92.7316H394.077V85.9805Z" fill="#171A1C"/>
<path d="M426.106 131.622V114.861L428.806 113.051H445.66V102.863H435.527V92.7316H462.514V102.863H452.381V113.051H476.01L478.711 114.861V131.622L476.01 133.432H469.295V126.619H462.519V133.432H428.811L426.111 131.622H426.106Z" fill="#171A1C"/>
<path d="M473.305 131.622V114.861L476.005 113.051H504.672V99.5438H511.448V113.051H518.163L520.863 114.861V131.622L518.163 133.432H511.448V126.68H504.672V133.432H476.005L473.305 131.622ZM490.159 85.9805H496.935V92.7316H490.159V85.9805Z" fill="#171A1C"/>
<path d="M515.468 131.622V114.861L518.168 113.051H526.744V99.5437H533.459V113.051H540.235V99.5437H546.951V113.051H587.434V99.5437H594.21V126.675H587.434V133.427H518.163L515.463 131.617L515.468 131.622ZM546.951 92.7316H587.434V99.5437H546.951V92.7316Z" fill="#171A1C"/>
<path d="M617.496 126.68H610.781V99.5488H617.496V113.117H644.484V99.5488H651.26V126.68H644.484V133.432H617.496V126.68ZM617.496 92.7316H644.484V99.5437H617.496V92.7316Z" fill="#171A1C"/>
<path d="M665.6 126.619H658.885V85.9194H652.109V79.1683H665.606V113.056H675.739L678.439 114.866V131.627L675.739 133.437H665.606V126.625L665.6 126.619Z" fill="#171A1C"/>
<path d="M673.034 131.622V114.861L675.734 113.051H737.79V106.3H677.034V91.0438H683.81V99.5437H744.505V113.051H785.798L788.498 114.861V131.622L785.798 133.432H744.505V126.68H737.79V133.432H675.734L673.034 131.622ZM683.81 84.2927H737.785V91.0438H683.81V84.2927ZM710.802 72.3562H737.79V79.1683H710.802V72.3562Z" fill="#171A1C"/>
<path d="M783.097 131.622V114.861L785.798 113.051H801.15V99.5438H807.865V113.051H828.137V101.232H834.853V113.051H855.125V97.856H861.84V113.051H870.179L872.879 114.861V131.622L870.179 133.432H861.84V126.681H855.125V133.432H785.793L783.092 131.622H783.097ZM821.24 87.6683H834.736V80.8561H841.512V94.4245H821.24V87.6733V87.6683Z" fill="#171A1C"/>
<path d="M867.483 131.622V114.861L870.184 113.051H893.813V97.795H900.529V126.614H893.813V133.427H870.184L867.483 131.617V131.622ZM878.997 84.2317H885.773V90.9828H878.997V84.2317Z" fill="#171A1C"/>
<path d="M908.083 85.9194H901.368V79.1683H914.864V133.432H908.088V85.9194H908.083Z" fill="#171A1C"/>
<path d="M927.516 126.619H920.801V107.988H927.516V113.051H961.285V99.4827H968V126.614H961.285V133.427H927.516V126.614V126.619ZM930.935 92.7316H961.28V99.4827H930.935V92.7316Z" fill="#171A1C"/>
</g>
<defs>
<clipPath id="clip0_2_44">
<rect width="968" height="147" fill="white"/>
</clipPath>
</defs>
</svg>
