<svg width="209" height="49" viewBox="0 0 209 49" fill="none" xmlns="http://www.w3.org/2000/svg">
<g clip-path="url(#clip0_2_386)">
<path d="M74.2921 24.3464H69.9967V25.7354C69.9967 26.1761 70.358 26.5367 70.7996 26.5367H74.2921C74.7337 26.5367 75.0949 26.1761 75.0949 25.7354V25.1477C75.0949 24.707 74.7337 24.3464 74.2921 24.3464Z" fill="#414B56"/>
<path d="M181.074 27.2445C180.94 26.9774 180.659 26.8171 180.364 26.8171H176.524V28.4598C176.524 28.9005 176.885 29.2611 177.327 29.2611H182.131C182.131 29.2611 182.064 29.1543 182.037 29.0875L181.06 27.2445H181.074Z" fill="#414B56"/>
<path d="M207.434 16.4402L192.514 1.5492C191.511 0.547564 190.159 -0.0133514 188.741 -0.0133514H13.341C5.96799 3.69735e-06 0 5.9564 0 13.3151V35.6849C0 43.0436 5.96799 49 13.341 49H195.659C203.032 49 209 43.0436 209 35.6849V20.2197C209 18.804 208.438 17.4552 207.434 16.4535V16.4402ZM190.561 12.9946H194.495C194.709 12.9946 194.91 13.0747 195.057 13.2349C195.672 13.8493 196.101 14.2766 196.729 14.9043C196.877 15.0512 196.97 15.2516 196.97 15.4653V17.789H190.561V12.9946ZM128.633 16.0529H135.511V12.8877H140.596V20.3799H128.633V16.0529ZM98.9803 9.02808L100.051 10.2167L93.4003 16.1731L92.6644 14.6773L98.9803 9.02808ZM20.5267 31.3312C20.5267 34.0022 19.0547 36.4462 16.6863 37.6882L12.3642 39.9719L9.3668 34.3227L13.6889 32.039C13.9565 31.9054 14.1171 31.625 14.1171 31.3312V20.9542H20.5267V31.3312ZM58.0072 32.9204H30.054C26.0798 32.9204 22.8416 29.6885 22.8416 25.722V12.5939H29.2512V25.722C29.2512 26.1627 29.6125 26.5233 30.054 26.5233H51.5977V25.1344C51.5977 24.6937 51.2364 24.3331 50.7948 24.3331H33.1718L31.0309 18.764L41.4548 9.42873L45.2015 13.649L40.3977 17.9493H50.7814C54.7556 17.9493 57.9939 21.1813 57.9939 25.1477V32.9204H58.0072ZM81.5045 25.722C81.5045 29.6885 78.2663 32.9204 74.2921 32.9204H70.7996C66.8254 32.9204 63.5872 29.6885 63.5872 25.722V17.9493H74.2787C78.2529 17.9493 81.4911 21.1813 81.4911 25.1477V25.7354L81.5045 25.722ZM154.606 39.9185H143.446V35.5914H154.606V39.9185ZM157.376 32.9204H119.935C117.54 32.9204 115.345 31.7452 114.007 29.822V32.9204H91.0185C87.0443 32.9204 83.8061 29.6885 83.8061 25.722V12.5939H90.2156V25.722C90.2156 26.1627 90.5769 26.5233 91.0185 26.5233H112.201L111.264 24.7604C111.13 24.4933 110.849 24.3331 110.555 24.3331H94.1229L91.9819 18.764L102.406 9.42873L106.153 13.649L101.349 17.9493H110.542C113.218 17.9493 115.667 19.4184 116.911 21.7822L119.199 26.0959C119.333 26.363 119.614 26.5233 119.908 26.5233H150.939V20.4734H157.349V32.9204H157.376ZM196.957 32.9204H188.406C187.229 32.9204 186.091 32.64 185.088 32.1191V35.6582H177.327C174.905 35.6582 172.75 34.4563 171.439 32.6133C170.77 32.8136 170.061 32.9338 169.312 32.9338H167.171C163.196 32.9338 159.958 29.7018 159.958 25.7354V12.6073H166.368V25.7354C166.368 26.1761 166.729 26.5367 167.171 26.5367H169.312C169.753 26.5367 170.114 26.1761 170.114 25.7354V20.4334H180.351C183.027 20.4334 185.476 21.9024 186.72 24.2663L187.697 26.1093C187.831 26.3764 188.112 26.5367 188.406 26.5367H190.547V20.4868H196.957V32.9338V32.9204Z" fill="#414B56"/>
</g>
<defs>
<clipPath id="clip0_2_386">
<rect width="209" height="49" fill="white"/>
</clipPath>
</defs>
</svg>
